<?xml version="1.0" encoding="utf-8"?>
<!-- Generator: Adobe Illustrator 22.1.0, SVG Export Plug-In . SVG Version: 6.00 Build 0)  -->
<svg version="1.1" id="Layer_1" xmlns="http://www.w3.org/2000/svg" xmlns:xlink="http://www.w3.org/1999/xlink" x="0px" y="0px"
	 viewBox="0 0 306.1 261" style="enable-background:new 0 0 306.1 261;" xml:space="preserve">
<style type="text/css">
	.st0{fill:#FFB200;}
	.st1{fill:#FFFFFF;}
</style>
<g>
	<path class="st0" d="M169.7,2.1c-6.8,1.1-13.2,4-18.9,8c-3.2,2.3-6.2,4.8-9.3,7.2c-3.8,3-6.9,6.7-9.6,10.8c-2.8,4.4-4.7,9.2-6,14.5
		c0.3-0.1,0.6-0.1,0.8-0.2c4.5-2.7,8.9-5.3,13.3-8c2.9-1.8,6.2-2.4,9.7-2.5C139,40.1,129.1,49,122.1,60.5c7.8-3.1,15.4-7.9,24.7-7.3
		c-10.5,7-19.1,15.7-26.1,26.6c8.7-3.5,16.6-8.1,26.1-8c-1.3,2.3-2.4,4.5-3.6,6.5c-1.7,3-3.2,6.2-5.4,8.7
		c-4.8,5.5-10.4,9.9-17.3,12.4c-4.8,1.7-9.6,3.5-14.6,4.4c-4.4,0.8-9,0.8-13.4,0.8c-1.8,0-3.7-0.6-5.4-1.2
		c-5.6-2.3-9.9-6.4-13.5-11.1c-5.6-7.4-9.4-15.6-11.2-24.6c-0.8-3.6-0.9-7.4-1.5-11.1c-0.8-5.1-0.3-10.2,0.7-15.2
		c0.8-3.9,2.1-7.7,3.5-11.4c1.2-3.2,3.2-6.2,6.1-8.2c3.5-2.5,7.6-2.8,11.7-2.4c3.1,0.3,5.1,3,4.5,5.5c-0.8,2.8-1.7,5.6-2.7,8.3
		c-1.6,4.5-3.5,8.9-3.4,13.8c0,4,4.2,9.3,9,8.8c0.5-0.1,1.1-0.4,1.6-0.6c-0.3-0.4-0.5-0.9-0.9-1.2c-3.1-3-3.8-5.3,0.6-8
		c3.7-2.3,7.5-4.4,9.5-8.8c1.5-3.1,2.9-6.2,2.1-9.7c-1.2-5.9-4.9-10.3-10.2-13c-6.2-3.3-12.8-3.7-19.5-1.5c-4.1,1.3-7.7,3.4-10.3,7
		c-3.9,5.2-6.7,11-8.2,17.3c-0.9,3.9-1.2,8-1.2,12c0,5.5,0.4,11,1.1,16.4c0.5,3.9,1.4,7.8,2.9,11.4c1.9,4.7,4.4,9.2,6.7,13.8
		c3.3,6.5,6.3,13.1,7.2,20.4c0.2,2.1,0.6,4.4,0.2,6.4c-0.9,4.7-3.3,8.9-5.9,12.9c-3,4.7-6,9.5-8.5,14.5c-2.2,4.2-1.7,8.7,1.4,12.5
		c1.7,2,3.3,4,4.5,6.3c1.5,2.8,2.2,5.9,1,9.3c9.7,0.5,19.3-0.5,29.1-0.9c0-0.5,0-0.8-0.1-0.9c-2.8-2.5-4-5.8-5.3-9.1
		c-0.6-1.5-1.6-2-3.3-1.5c-1.3,0.5-2.6,0.8-3.9,1.1c-1.9,0.5-3.2-0.8-2.7-2.7c0.3-1.2,0.7-2.5,0.8-3.8c0.1-1.5,1-2,2.2-2.4
		c5.4-1.2,10.2-3.5,14-7.5c2.5-2.6,4.5-5.7,6.9-8.4c2.3-2.6,4.7-5.1,7.3-7.4c1.2-1.1,2.8-1.5,4.4-1.2c1.8,0.4,3.7,1,5.5,1.5
		c5.1,1.3,10.1,2.7,15.1,3.9c9.2,2.2,18.5,4.1,27.7,6.3c5.8,1.4,11.5,1.2,17.3,0.5c5.5-0.6,11.1-1.6,16.6-2.4c0.4,0,1.3,0.4,1.4,0.8
		c0.9,1.7,1.6,3.6,2.5,5.3c1.6,2.9,3,6,5.1,8.6c3,3.9,6.6,7.5,9.8,11.3c1.7,2.1,3.1,4.6,2.5,7.5c0,0.2,0.5,0.7,0.8,0.8
		c1.5,0.2,2.9,0.4,4.4,0.4c4.2-0.1,8.3-0.2,12.5-0.4c3.2-0.1,6.4-0.2,9.6-0.3c0.4,0,0.9-0.2,1.2-0.2c-1-1.4-2-2.5-2.7-3.8
		c-1-1.9-1.8-3.8-2.6-5.8c-0.9-2.1-2.1-2.7-4.3-2.1c-1.1,0.3-2.2,0.6-3.2,1.1c-3.4,1.7-4.8,0.2-6-2.2c-0.7-1.3-1.2-2.8-1.3-4.3
		c-0.3-4.5-0.2-9,1-13.4c1-3.9,2.2-7.7,3.4-11.6c0.4-1.1,0.9-1.8,2.3-1.1c2.7,1.2,5.4,2.1,8.1,3.2c2.1,0.8,4.1,1.8,6.2,2.8
		c-0.3-2.3-0.4-4.3-0.8-6.3c-1.3-5.4-0.3-10.8,0.3-16.2c0.4-3.6,1.2-7.2,1.7-10.8c0.6-3.7,0.7-7.5,1.5-11.2
		c0.9-4.2-0.3-7.5-3.4-10.2c-3.4-3.1-7.4-5.2-11.6-6.9c-2.3-1-4.6-1.8-6.9-2.8c-0.7-0.3-2-0.8-1.2-2c0.8-1.1,1.8-2.4,2.9-3.1
		c3.8-2.1,9,0,12.3,2.9c1.9,1.6,3.4,3.7,5.2,5.7c0.2-0.9,0.4-1.7,0.5-2.6c0.5-3.1,1.1-6.3-0.2-9.3c-0.4-0.9-1.2-1.8-1.3-2.8
		c-0.3-1.9-0.8-2.3-2.5-1.3c-1.4,0.7-2.8,1.4-4.5,1.1c-2.8-0.4-5.6-0.6-8.4-1c-1.4-0.2-2.9-0.5-4.3-0.9c-2.7-0.8-2.7-1.1-2.1-3.9
		c0.7-3.2,2.2-6,5.3-7.1c2.2-0.7,4.8-0.5,7.2-0.9c2.5-0.3,4.7,0.1,6.2,2.3c0.4,0.6,1,0.8,1.9,1.4c0.2-0.8,0.2-1.4,0.4-1.9
		c0.3-0.9,0.5-1.8,1-2.6c0.8-1.3,1.9-2.5,2.4-3.9c0.7-2,0.9-4.2,1.5-6.2c1-3,0.9-5.9,0.2-9c-0.5-1.9-0.3-4-0.2-5.9
		c0.1-1.8,0.6-3.5,1-5.8c-1.8,0.1-3.1,0.1-4.4,0.3c-2.1,0.2-4.2,0.4-6.2,0.7c-3,0.5-6,1.1-8.9,1.9c-2,0.5-3.9,1.6-5.9,2.3
		c-0.4,0.2-1.1-0.1-1.5-0.4c-0.8-0.7-1.3-2-2.2-2.3c-2.9-0.9-5.9-1.4-8.8-2.2c-1.3-0.4-2.5-1.1-3.6-1.9c-1.8-1.3-3.5-3.1-5.4-4.1
		c-5.7-3.1-11.7-5.1-18.3-6.1c-2.4-0.3-4.9-0.5-7.3-0.5C175.6,1.3,172.7,1.6,169.7,2.1"/>
	<polygon class="st1" points="28.6,190.3 21,190.3 9.1,207 9.1,190.3 2.7,190.3 2.8,225 9.1,225 9.1,207.8 20.6,225 28.8,225 
		16.5,207.3 	"/>
	<polygon class="st1" points="31,190.3 31.1,225 37.7,225 37.7,190.3 	"/>
	<polygon class="st1" points="62.1,190.3 62.3,215.3 50,190.3 41.9,190.3 41.9,225 48.5,225 48.2,198.8 61.2,225 68.5,225 
		68.5,190.2 	"/>
	<path class="st1" d="M85.7,204.4l0,6.1h8.5v8.1c-6.8,0-10.7-0.5-11.8-1.6c-1.1-1-1.7-2.4-2.1-4.1c-0.1-0.4-0.2-0.9-0.2-1.4l0-0.1
		c0-0.3-0.1-0.7-0.2-1.2l-0.1-3.6c0-2.9,0.5-5.1,1.4-6.9c1.2-2.3,3.1-3.4,5.8-3.5l13.6,0l0-6c-10.3,0-16.1,0.1-17.4,0.3
		c-1.3,0.2-2.4,0.5-3.2,1c-2.8,1.6-4.8,3.9-5.9,7c-0.9,2.4-1.4,5.3-1.4,8.7c0,3.2,0.3,6,0.9,8.1c0.8,2.6,1.8,4.6,3.2,6l1.5,1.4
		c0.8,0.5,1.3,0.9,1.7,1.1l2.3,0.9c0.4,0.1,0.8,0.2,1.3,0.3l0.1,0.1c0.1,0,0.5,0,1,0l16.1,0l0-20.6L85.7,204.4z"/>
	<path class="st1" d="M131.1,207.4l-0.9-0.9l-0.7-0.6c-0.6-0.4-1.2-0.7-1.9-0.8l-0.9-0.2l-1-0.2l-2.4,0c-6.7,0-10.5-0.3-11.3-0.9
		c-0.8-0.7-1.1-1.7-1.2-3.1c0-1.4,0.5-2.5,1.3-3.2c0.9-0.7,2.1-1,3.6-1l15.7,0l0-6.2h-16.7c-3.4,0-5.9,0.8-7.6,2.3
		c-2,1.8-2.9,4.8-2.9,8.9c0,4.2,1.6,7,4.8,8.4c1.5,0.7,3.7,1,6.9,1l2.1-0.1h1.5c3.4,0,5.4,0.4,6.2,1.2c0.1,0.2,0.3,0.4,0.3,0.6
		c0.2,0.2,0.2,0.5,0.3,0.9c0.1,0.4,0.1,1.1,0.1,2.2c0,1-0.5,1.8-1.6,2.4c-0.7,0.4-1.8,0.6-3.4,0.6l-15.9,0l0,6.2
		c14.7,0,22.9-0.8,24.6-2.3c2-1.7,3-3.8,2.9-6.4c0-2.5-0.1-4.4-0.4-5.7C132.3,209.2,131.8,208.1,131.1,207.4"/>
	<path class="st1" d="M186.6,204.9c2-1.3,3-3.3,3-6l0-0.9c0-4.5-4.5-8.1-8.1-8.1c-0.6,0-1,0.5-1,1l-0.1,2.6c0,0.6,0.5,1,1,1
		c1.4,0,3,1.8,3.1,3.4l0,1.6c0,2.3-1.6,3.1-3.2,3.1h-4c-0.6,0-1,0.5-1,1v2.6c0,0.6,0.5,1,1,1l4.2,0c2.1,0,3.8,2.6,3.8,5.8l0,2.2
		c0,3.5-1.6,5.1-4.8,5.1c-3.3,0-4.8-2.2-4.8-4.2v-1c0-0.9,0.3-2.1,1.2-2.8c0.2-0.2,0.4-0.4,0.4-0.7c0.1-0.3-0.1-0.5-0.2-0.8
		l-1.6-1.8c-0.3-0.4-0.9-0.5-1.3-0.2c-1.8,1.2-3.5,3.4-3.4,5.9l0,1.9c0,4.1,4,8.4,9.9,8.4c5.8,0,9.8-4,9.8-9.7l0-2.2
		C190.4,209.2,189.2,206.4,186.6,204.9"/>
	<path class="st1" d="M202.3,189.9c-4.5,0-9.9,2.4-9.8,13.4l0,7.8c0,8.4,2.3,13.1,6.8,13.9c0.1,0,0.1,0,0.2,0c0.3,0,0.4-0.1,0.7-0.2
		c0.2-0.2,0.4-0.5,0.4-0.8l0.1-2.6c0-0.3-0.1-0.6-0.3-0.7c-0.2-0.2-0.5-0.3-0.7-0.3c-0.7,0-2.1-2.4-2.1-9.3l0-7.9
		c0-6.4,1.3-8.6,5-8.6c2.9,0,4.7,1.4,4.7,8.5v8c0,6.4-1.6,9.4-2.7,9.4c-0.3,0-0.6,0.1-0.8,0.3c-0.2,0.2-0.3,0.5-0.3,0.8l0.2,2.6
		c0,0.3,0.2,0.6,0.5,0.7c0.2,0.2,0.5,0.2,0.8,0.2c6.3-1.5,7.3-9.5,7.3-14.1l0.1-7.9C212.2,197.4,211.2,189.9,202.3,189.9"/>
	<path class="st1" d="M225.9,199.8c-1.2,0-3.2,0.3-5.1,1.8v-4.5c0-2.3,1.4-2.3,1.9-2.3l0.1,0c0.9,0,1.9,0.2,2.8,0.4
		c1,0.2,2,0.4,3.2,0.4c2.1,0,3.7-0.5,5.8-1.8c0.3-0.2,0.5-0.5,0.5-0.9l0-2.3c-0.1-0.4-0.2-0.7-0.5-0.9c-0.3-0.2-0.6-0.2-1-0.1
		l-0.1,0.1c-1.9,0.8-2.9,1.3-4.4,1.3c-0.9,0-1.9-0.2-3-0.5c-1.3-0.3-2.6-0.6-3.9-0.6c-3.8,0-6.2,2.7-6.2,6.8v18
		c0.1,5.9,4,9.9,9.9,9.9c6.1,0,9.8-3.8,9.8-9.9v-5.4C235.8,204.8,232.4,199.8,225.9,199.8 M230.8,214.7c0,3.7-1.6,5.6-4.8,5.6
		c-4.4,0-4.8-4-4.8-5.3l0-5.2c0-5.5,2.9-5.5,4.9-5.5c4.3,0,4.8,3.8,4.8,5.4V214.7z"/>
	<path class="st1" d="M254,201.5l1.7-3.6c0-0.1,0.1-0.3,0.1-0.4c0-4.9-2.9-7.7-7.8-7.7c-3.8,0-8,2.5-8,6.6v2.8c0,0.6,0.5,1,1,1
		l2.7,0c0.5,0,1-0.5,1-1v-2.8c-0.1-1.7,2-2,3.2-2c1.6,0,2.9,1.8,3,2.8l-1.8,3.5c-7.8,0.5-11.4,5.9-11.3,11.1v2.6
		c0,4.4,4.3,10.5,11.2,10.5c8.2,0,11.3-6.3,11.4-10.5v-3C260.5,206.2,256.9,202.9,254,201.5 M255.3,214c0,2.4-0.8,6.3-6.1,6.3
		c-4.6,0-6.3-3.8-6.3-6.3l0-2.1c0-4.1,2.1-6.5,5.7-6.5h1.5c3.5,0,5.2,3.5,5.2,5.9V214z"/>
	<path class="st1" d="M277.4,201.8c0-0.7,0.2-0.9,0.9-1.9l0.2-0.2c0.2-0.3,0.3-0.6,0.2-0.9c-0.1-0.3-0.4-0.6-0.7-0.7l-3-0.9
		c-0.4-0.1-0.9,0-1.1,0.4c-1.1,1.6-1.3,3-1.3,4.2c0,1.8,1.2,3.4,2.5,5c1.4,1.7,2.7,3.5,2.7,5.6v1.2c0,1.9-0.4,6.5-4.8,6.5
		c-3.3,0-4.9-2.1-4.9-6.5v-23c0-0.6-0.5-1-1-1h-3c-0.6,0-1,0.5-1,1v23c0,6.9,3.7,11.1,9.9,11.1c5.7,0,9.9-4.6,9.9-10.8l0-2
		c0-2.9-1.8-5-3.3-6.8C278.3,204,277.4,202.9,277.4,201.8"/>
	<path class="st1" d="M294.6,189.7c-4.5,0-9.8,2.3-9.8,13.4v7.8c0,8.4,2.3,13.1,6.9,13.9c0,0,0.1,0,0.2,0c0.2,0,0.5-0.1,0.7-0.2
		c0.2-0.2,0.4-0.5,0.4-0.8v-2.6c0.1-0.3-0.1-0.6-0.3-0.7c-0.2-0.2-0.5-0.3-0.7-0.3c-0.7,0-2.1-2.4-2.1-9.3l0-7.9
		c0-6.4,1.2-8.6,4.9-8.6c2.9,0,4.7,1.4,4.7,8.5l0,8c0,6.4-1.6,9.3-2.7,9.3c-0.3,0-0.6,0.1-0.8,0.3c-0.2,0.2-0.3,0.5-0.3,0.8l0.2,2.6
		c0.1,0.3,0.2,0.6,0.5,0.7c0.2,0.2,0.5,0.2,0.8,0.2c6.3-1.4,7.3-9.4,7.3-14l0-7.9C304.6,197.2,303.5,189.7,294.6,189.7"/>
	<path class="st1" d="M152.4,183.8c-1.9,0-3.4,1.5-3.4,3.4l0,41.1c0,1.9,1.6,3.4,3.4,3.4c1.9,0,3.4-1.5,3.4-3.5l-0.1-41.1
		C155.8,185.4,154.3,183.8,152.4,183.8"/>
	<path class="st1" d="M143.6,247.7H143c-1.6,0-1.8,0.5-1.8,1.8v4.8c0,1.5,0.3,1.9,1.5,1.9h1.3c1.3,0,1.5-0.4,1.5-2v-4.7
		C145.4,247.9,145,247.7,143.6,247.7"/>
	<path class="st1" d="M211.8,242.3c-1,0-1.6,0.2-1.6,1.6v10.8c0,1,0.5,1.5,1.6,1.5c1.3,0,1.8-0.6,1.8-1.4v-11.2
		C213.6,242.7,213.2,242.3,211.8,242.3"/>
	<path class="st1" d="M255.5,247.6h-0.7c-1.6,0-1.6,0.6-1.6,1.7v5.1c0,1.5,0.2,1.9,1.7,1.9h0.4c1.4,0,1.7-0.2,1.7-1.8v-5.2
		C257.1,247.9,256.8,247.6,255.5,247.6"/>
	<path class="st1" d="M57.1,247.7h-0.6c-1.7,0-1.8,0.5-1.8,1.8v4.8c0,2,0.5,2,1.8,2H57c1.5,0,1.8-0.3,1.8-2.2v-4.7
		C58.8,248.1,58.5,247.7,57.1,247.7"/>
	<path class="st1" d="M111.6,247.7h-0.4c-1.6,0-1.8,0.4-1.8,1.7v5c0.1,1.6,0.3,1.9,1.7,1.9h0.5c1.6,0,1.8-0.3,1.8-2v-4.7
		C113.4,248.1,113.3,247.7,111.6,247.7"/>
	<path class="st1" d="M85.4,242.6l-0.5-0.1c0.1,0.5,0.1,1.5,0.1,2l0.1,5.5c0,0.3-0.1,0.7-0.6,0.7h-1.2c-0.4,0-0.6-0.3-0.6-0.7
		l0.1-5.5c0-0.5,0-1.5,0.1-2l-0.4,0.1c-1.3,0-2.2,0.6-2.2,2.3v9.2c0,1.7,0.9,2.3,2.2,2.3h2.8c1.3,0,2.2-0.6,2.2-2.3v-9.2
		C87.4,243.2,86.7,242.6,85.4,242.6"/>
	<path class="st1" d="M12.2,254.2c0,1.6,0.2,2,1.5,2h1.2c1.2,0,1.5-0.3,1.5-2.1v-4.4c-0.1-1.5-0.3-1.9-2-1.9h-0.4
		c-1.6,0-1.9,0.3-1.9,1.8V254.2z"/>
	<path class="st1" d="M281.2,247.7h-0.4c-1.6,0-1.8,0.4-1.8,1.7v5c0.1,1.6,0.3,1.9,1.7,1.9h0.5c1.6,0,1.8-0.3,1.8-2v-4.7
		C283.1,248.1,282.9,247.7,281.2,247.7"/>
	<path class="st1" d="M0,261h306.1v-24H0V261z M19.6,241.9c0,0.5-0.3,0.6-0.6,0.6h-0.8c-1,0-1.2,0.3-1.2,1.1v0.3
		c0,0.3-0.1,0.6-0.6,0.6h-1.5c-0.4,0-0.6-0.3-0.6-0.6v-0.2c0-1-0.2-1.3-1-1.3c-0.9,0-1.1,0.4-1.1,1.8v2c0.5-0.4,1.1-0.5,2.1-0.5h0.2
		c3.4,0,4.9,0.4,4.9,3.8v5.1c0.1,3.2-1,4-4.1,4h-1.7c-3.1,0-4.1-0.7-4.1-4.3V244c0-3.4,1.6-4.1,3.8-4.1c1.5,0,2.1,0.6,2.6,1.5h0.1
		c0.4-0.9,1.4-1.3,2.4-1.3H19c0.3,0,0.6,0.2,0.6,0.6V241.9z M31.5,254.5c0,3-0.5,4.1-4.1,4.1h-1.1c-2.7,0-4.1-0.5-4.1-3.4v-3.5
		c0-0.3,0.2-0.6,0.6-0.6h1.5c0.5,0,0.6,0.3,0.6,0.6v2.8c0,1.5,0.1,1.9,1.5,1.9h0.9c1.1,0,1.5-0.3,1.5-1.7l0-4c0-4-4.4-5.5-4.4-9.2
		v-0.6c0-0.3,0.2-0.6,0.6-0.6h1.5c0.5,0,0.6,0.3,0.6,0.6v0.6c0,2.8,4.4,5.1,4.4,9.3L31.5,254.5z M48.7,257.8c0,0.3-0.1,0.6-0.6,0.6
		h-1.6c-0.4,0-0.6-0.3-0.6-0.6v-0.3l0-7.7c0-2-0.4-2.1-1.5-2.1c-1,0-1.2,0.7-1.2,1.8v4.3c0,0.3-0.1,0.6-0.6,0.6h-1.7
		c-0.4,0-0.6-0.3-0.6-0.6v-4.3c0-1.5-0.3-1.9-1.2-1.9c-0.9,0-1.5,0.2-1.5,1.6v8.4c0,0.3-0.1,0.6-0.6,0.6h-1.6
		c-0.4,0-0.6-0.3-0.6-0.6v-13.3c0-2.8,1.7-4.3,4.7-4.3h6.8c0.3,0,0.6,0.1,0.6,0.6v1c0,0.4-0.3,0.6-0.6,0.6h-6.7
		c-1.3,0-2.2,0.6-2.2,2.3v1.3c0.4-0.3,1.1-0.6,1.7-0.6c1.3,0,2,0.5,2.4,1.2h0.1c0.4-0.8,1.5-1.2,2.4-1.2c2.2,0,4.3,0.1,4.3,4V257.8z
		 M61.6,254.6c0,3.1-1,3.9-4.1,3.9H56c-2.8,0-4.1-0.4-4.1-4.2v-5.3c0-3,1.1-3.7,4.5-3.7h0.8c0.7,0,1.3,0.3,1.7,0.5v-1.8
		c0-1.5-0.5-1.7-1.5-1.7h-1.2c-0.9,0-1.5,0.4-1.5,1.2c0,0.3-0.1,0.6-0.6,0.6h-1.5c-0.4,0-0.6-0.3-0.6-0.6c0-2.4,1.1-3.6,4-3.6h1.7
		c3.3,0,4,1.7,4,4.6V254.6z M74.1,254.5c0,3-0.5,4.1-4.1,4.1h-1.1c-2.7,0-4.1-0.5-4.1-3.4v-3.5c0-0.3,0.2-0.6,0.6-0.6h1.5
		c0.5,0,0.6,0.3,0.6,0.6v2.8c0,1.5,0.1,1.9,1.5,1.9h0.9c1.1,0,1.5-0.3,1.5-1.7l0-4c0-4-4.4-5.5-4.4-9.2v-0.6c0-0.3,0.2-0.6,0.6-0.6
		h1.5c0.5,0,0.6,0.3,0.6,0.6v0.6c0,2.8,4.4,5.1,4.4,9.3L74.1,254.5z M90.2,254.2c0,2.8-1.7,4.3-4.7,4.3h-3.2c-3,0-4.7-1.5-4.7-4.3
		v-9.6c0-2.8,1.7-4.3,4.7-4.3h0.5v-0.2c0-0.3,0.2-0.5,0.6-0.5h1.1c0.5,0,0.6,0.2,0.6,0.5v0.2h0.4c3,0,4.7,1.5,4.7,4.3V254.2z
		 M103.2,254.6c0,3.1-1.3,4-3.9,4h-1.8c-3.3,0-4.2-0.5-4.2-4.2l0-2.7c0-0.3,0.2-0.6,0.6-0.6h1.6c0.5,0,0.6,0.3,0.6,0.6v2.5
		c0,1.6,0.2,2.1,1.5,2.1H99c1.1,0,1.4-0.5,1.4-1.9V244c0-1.3-0.2-1.7-1.8-1.7h-0.7c-1.1,0-1.5,0.5-1.5,1.7v0.8
		c0,0.3-0.1,0.6-0.6,0.6h-1.6c-0.4,0-0.6-0.3-0.6-0.6v-0.6c0-3.6,1.4-4.2,4.2-4.2h0.9c3.8,0,4.5,1,4.5,3.9V254.6z M116.3,254.3
		c0,3.6-0.6,4.2-4.1,4.2h-1.5c-3,0-4.2-0.4-4.2-4.2v-5.2c0-2.9,1.1-3.8,4.2-3.8c0-2.5-2.6-1.1-2.6-4v-0.6c0-0.3,0.2-0.6,0.6-0.6h1.6
		c0.5,0,0.6,0.3,0.6,0.6v0.4c0,2.3,2.4,1,2.4,4.2c2.6,0.1,2.9,2.1,2.9,3.7V254.3z M128.7,254.5c0,3-0.5,4.1-4.1,4.1h-1.1
		c-2.7,0-4.1-0.5-4.1-3.4v-3.5c0-0.3,0.2-0.6,0.6-0.6h1.5c0.5,0,0.6,0.3,0.6,0.6v2.8c0,1.5,0.1,1.9,1.5,1.9h0.9
		c1.1,0,1.5-0.3,1.5-1.7l0-4c0-4-4.4-5.5-4.4-9.2v-0.6c0-0.3,0.2-0.6,0.6-0.6h1.5c0.5,0,0.6,0.3,0.6,0.6v0.6c0,2.8,4.4,5.1,4.4,9.3
		L128.7,254.5z M148.2,254.1c0,3.7-0.9,4.4-4.2,4.4h-1.6c-3.8,0-4.2-1.5-4.2-4.2v-5.1c0-3.4,1.7-3.8,4.3-3.8h1.2v-2.2
		c0-0.7-0.1-1.1-1.2-1.1c-0.9,0-1.1,0.5-1.1,1v0.3c0,0.3-0.2,0.6-0.6,0.6h-1.6c-0.5,0-0.6-0.3-0.6-0.6v-0.2c0-1.5,0.8-3.1,3.8-3.1
		c2.8,0,3.9,0.9,3.9,3.7v2c1.4,0.5,1.7,1.7,1.7,3.6V254.1z M161.5,254.6c0,3.1-1.3,4-3.9,4h-2c-3.3,0-4.2-0.5-4.2-4.2l0-2.7
		c0-0.3,0.2-0.6,0.6-0.6h1.6c0.5,0,0.6,0.3,0.6,0.6l0,2.5c0,1.6,0.2,2.1,1.5,2.1h1.7c1.1,0,1.4-0.5,1.4-1.9v-3.1
		c0-1.6-0.3-1.9-1.6-1.9h-0.4c-0.3,0-0.4-0.2-0.4-0.4v-1.5c0-0.2,0.2-0.3,0.4-0.3c1.6,0,1.8-0.3,1.8-1.3V244c0-1.3-0.2-1.7-1.8-1.7
		h-0.7c-1.1,0-1.5,0.5-1.5,1.7v0.8c0,0.3-0.1,0.6-0.6,0.6h-1.6c-0.4,0-0.6-0.3-0.6-0.6v-0.6c0-3.6,1.4-4.2,4.2-4.2h1
		c3.8,0,4.5,1,4.5,3.9v1.9c0,1-0.6,1.8-1.6,2.4v0.1c1.2,0.2,1.9,1.7,1.9,2.5V254.6z M173.9,254.5c0,3-0.5,4.1-4.1,4.1h-1.1
		c-2.7,0-4.1-0.5-4.1-3.4v-3.5c0-0.3,0.2-0.6,0.6-0.6h1.5c0.5,0,0.6,0.3,0.6,0.6v2.8c0,1.5,0.1,1.9,1.5,1.9h0.9
		c1.1,0,1.5-0.3,1.5-1.7l0-4c0-4-4.4-5.5-4.4-9.2v-0.6c0-0.3,0.2-0.6,0.6-0.6h1.5c0.5,0,0.6,0.3,0.6,0.6v0.6c0,2.8,4.4,5.1,4.4,9.3
		L173.9,254.5z M187,254.6c0,3.1-1.3,4-3.9,4h-1.8c-3.3,0-4.2-0.5-4.2-4.2l0-2.7c0-0.3,0.2-0.6,0.6-0.6h1.6c0.5,0,0.6,0.3,0.6,0.6
		v2.5c0,1.6,0.2,2.1,1.5,2.1h1.5c1.1,0,1.4-0.5,1.4-1.9V244c0-1.3-0.2-1.7-1.8-1.7h-0.7c-1.1,0-1.5,0.5-1.5,1.7v0.8
		c0,0.3-0.1,0.6-0.6,0.6H178c-0.4,0-0.6-0.3-0.6-0.6v-0.6c0-3.6,1.4-4.2,4.2-4.2h0.9c3.8,0,4.5,1,4.5,3.9V254.6z M204.1,257.8
		c0,0.3-0.1,0.6-0.6,0.6h-1.6c-0.4,0-0.6-0.3-0.6-0.6v-0.3l0-7.7c0-2-0.4-2.1-1.5-2.1c-1,0-1.2,0.7-1.2,1.8v4.3
		c0,0.3-0.1,0.6-0.6,0.6h-1.7c-0.4,0-0.6-0.3-0.6-0.6v-4.3c0-1.5-0.3-1.9-1.2-1.9c-0.9,0-1.5,0.2-1.5,1.6v8.4c0,0.3-0.1,0.6-0.6,0.6
		H191c-0.4,0-0.6-0.3-0.6-0.6v-13.3c0-2.8,1.7-4.3,4.7-4.3h6.8c0.3,0,0.6,0.1,0.6,0.6v1c0,0.4-0.3,0.6-0.6,0.6h-6.7
		c-1.3,0-2.2,0.6-2.2,2.3v1.3c0.4-0.3,1.1-0.6,1.7-0.6c1.3,0,2,0.5,2.4,1.2h0.1c0.4-0.8,1.5-1.2,2.4-1.2c2.2,0,4.3,0.1,4.3,4V257.8z
		 M221.9,257.8c0,0.3-0.1,0.6-0.6,0.6h-1.6c-0.4,0-0.6-0.3-0.6-0.6v-14c0-0.9-0.2-1.4-1.5-1.4c-1.1,0-1.2,0.9-1.2,1.9v10
		c0,3.1-0.8,4.3-4.4,4.3h-0.5c-3.4,0-4.2-1.4-4.2-3.8v-11c0-3,2.2-3.8,4.5-3.8c1,0,2.6,0.5,3.1,1.5h0.1c0.5-1,1.4-1.5,2.6-1.5h0.5
		c2.7,0,3.7,1,3.7,4.1V257.8z M234.7,257.8c0,0.3-0.1,0.6-0.6,0.6h-1.5c-0.4,0-0.6-0.3-0.6-0.6V244c0-1.4-0.3-1.8-1.6-1.8h-0.8
		c-1.4,0-1.6,0.4-1.6,2v13.6c0,0.3-0.1,0.6-0.6,0.6h-1.5c-0.4,0-0.6-0.3-0.6-0.6V244c0-2.8,0.8-4.1,3.9-4.1h1.7
		c3.5,0,3.9,1.8,3.9,4.2V257.8z M247.2,254.5c0,3-0.5,4.1-4.1,4.1H242c-2.7,0-4.1-0.5-4.1-3.4v-3.5c0-0.3,0.2-0.6,0.6-0.6h1.5
		c0.5,0,0.6,0.3,0.6,0.6v2.8c0,1.5,0.1,1.9,1.5,1.9h0.9c1.1,0,1.5-0.3,1.5-1.7l0-4c0-4-4.4-5.5-4.4-9.2v-0.6c0-0.3,0.2-0.6,0.6-0.6
		h1.5c0.5,0,0.6,0.3,0.6,0.6v0.6c0,2.8,4.4,5.1,4.4,9.3L247.2,254.5z M259.8,254.5c0,3.3-0.8,4.1-4,4.1h-1.3c-3.3,0-4-0.9-4-4v-10.8
		c0-2.8,1-3.6,3.8-3.6h4.2c0.3,0,0.6,0.1,0.6,0.6v1c0,0.4-0.3,0.6-0.6,0.6h-4.2c-1,0-1.1,0.5-1.1,1.9v1.6c0.6-0.4,1.3-0.5,1.9-0.5
		h0.9c3.5,0,3.8,1.4,3.8,3.9V254.5z M272.8,254.6c0,3.1-1.3,4-3.9,4h-1.8c-3.3,0-4.2-0.5-4.2-4.2l0-2.7c0-0.3,0.2-0.6,0.6-0.6h1.6
		c0.5,0,0.6,0.3,0.6,0.6v2.5c0,1.6,0.2,2.1,1.5,2.1h1.5c1.1,0,1.4-0.5,1.4-1.9V244c0-1.3-0.2-1.7-1.8-1.7h-0.7
		c-1.1,0-1.5,0.5-1.5,1.7v0.8c0,0.3-0.1,0.6-0.6,0.6h-1.6c-0.4,0-0.6-0.3-0.6-0.6v-0.6c0-3.6,1.4-4.2,4.2-4.2h0.9
		c3.8,0,4.5,1,4.5,3.9V254.6z M285.9,254.3c0,3.6-0.6,4.2-4.1,4.2h-1.5c-3,0-4.2-0.4-4.2-4.2v-5.2c0-2.9,1.1-3.8,4.2-3.8
		c0-2.5-2.6-1.1-2.6-4v-0.6c0-0.3,0.2-0.6,0.6-0.6h1.6c0.5,0,0.6,0.3,0.6,0.6v0.4c0,2.3,2.4,1,2.4,4.2c2.6,0.1,2.9,2.1,2.9,3.7
		V254.3z M298.7,254.2c0,3.8-1.2,4.4-4,4.4h-1.5c-2.9,0-4-0.7-4-4.2v-13.5c0-0.3,0.1-0.6,0.6-0.6h1.6c0.4,0,0.6,0.3,0.6,0.6v13.5
		c0,1.5,0.2,2,1.5,2h0.9c1.3,0,1.5-0.5,1.5-1.9v-8.2c0-0.3,0.1-0.6,0.6-0.6h1.6c0.4,0,0.6,0.3,0.6,0.6V254.2z"/>
</g>
</svg>
